<svg version="1.0" xmlns="http://www.w3.org/2000/svg" width="266.667" height="266.667" viewBox="0 0 200 200"><path d="M76.5 1.9c-1.1.5-6.8.7-12.6.4C54 1.7 52.8 1.9 43.2 5c-16.1 5-22.6 10.6-26.6 22.4-2 6.3-2.1 18.3 0 26.1 2.3 8.8 2.1 15.6-.5 19.9-1.2 1.9-3.1 3.8-4.1 4.1-5.4 1.7 1.5 5.5 10 5.5 3.3 0 7.6-.7 9.5-1.4 1.9-.8 3.5-1.1 3.5-.6 0 .6-1.8 5.6-3.9 11.3-5.8 15.2-7.4 24.5-6.9 39.1.5 13-.1 11.1 9.9 34 2.3 5.4 7 14.4 10.3 20 4.8 7.9 6.7 10.2 8.9 10.7 5.4 1.4 33.2 3.2 38.9 2.5 19.3-2.4 55.9-41.2 63.9-67.8 3.1-10.5 8.5-15.6 17.9-16.8 2.5-.3 4.4-1 4.3-1.6-.1-.7 2.2-1.4 5.4-1.7 6.6-.7 9-2.3 4.7-3.2-1.6-.4-3.5-.8-4.1-1.1-1-.2-1.3-4.1-1.3-14.8V77.2l-5.7-.7c-7.3-.9-49.3-.9-56.6 0l-5.7.7V105.9l-3.5.7c-1.9.3-3.8 1-4.1 1.5-.8 1.3 4.1 2.9 9.2 2.9 2.4 0 4.4.5 4.4 1 0 .6.8 1.4 1.8 1.8 2.2.8 13.4 12.7 15.1 16 1 1.9.9 3-.9 6.7-2.5 5.2-8.4 10.4-19.6 17.3-8.5 5.3-29.7 16.2-31.4 16.2-.5 0-1-1.3-1-2.8 0-2 1.3-4 4.6-7.2 6.3-6.2 7.7-9.2 7.2-15.7-.5-6.3-3.7-10.9-11.4-16.3-10.8-7.7-16.6-15.7-20.9-28.8-2.1-6.4-1.5-11.2 2-18.3L69 76h9.9c8.5 0 10-.3 11.6-2 1.5-1.7 1.6-2.4.7-4.6-.7-1.4-.9-3.6-.6-5 .4-1.4.1-3.1-.6-3.9-1-1.2-.9-1.5.4-1.5 2.2 0 3.1-2.7 1.6-4.5-1.1-1.3-.9-2 .9-3.8 2.8-3.1 2.7-4.9-.7-6.9-5.4-3.2-6-4.6-5.5-12.6.5-5.9.9-7.2 2.2-7.2 2.6 0 6.1-3.8 6.2-6.8.3-7.3-1.1-10.9-5.4-13.7C86.8 1.7 79.2.7 76.5 1.9zm74.1 113.2c-9.9 3.5-13.3 3.4-18.1-.6l-3-2.4h15l15-.1-8.9 3.1z"/></svg>