<svg width="343" height="343" viewBox="0 0 343 343" fill="none" xmlns="http://www.w3.org/2000/svg">
<circle cx="171.5" cy="171.5" r="171.5" fill="#263528"/>
<g clip-path="url(#clip0_101_10)">
<path d="M140 78.5333C138.533 79.2 130.933 79.4667 123.2 79.0667C110 78.2667 108.4 78.5333 95.6001 82.6667C74.1334 89.3334 65.4667 96.8 60.1334 112.533C57.4667 120.933 57.3334 136.933 60.1334 147.333C63.2 159.067 62.9334 168.133 59.4667 173.867C57.8667 176.4 55.3334 178.933 54 179.333C46.8 181.6 56 186.667 67.3334 186.667C71.7334 186.667 77.4667 185.733 80.0001 184.8C82.5334 183.733 84.6667 183.333 84.6667 184C84.6667 184.8 82.2667 191.467 79.4667 199.067C71.7334 219.334 69.6 231.734 70.2667 251.2C70.9334 268.534 70.1334 266 83.4667 296.534C86.5334 303.734 92.8001 315.734 97.2001 323.2C103.6 333.734 106.133 336.8 109.067 337.467C116.267 339.334 153.333 341.734 160.933 340.8C186.667 337.6 235.467 285.867 246.134 250.4C250.267 236.4 257.467 229.6 270 228C273.334 227.6 275.867 226.667 275.734 225.867C275.6 224.934 278.667 224 282.934 223.6C291.734 222.667 294.934 220.534 289.2 219.334C287.067 218.8 284.534 218.267 283.734 217.867C282.4 217.6 282 212.4 282 198.133V178.933L274.4 178C264.667 176.8 208.667 176.8 198.934 178L191.334 178.933V217.2L186.667 218.134C184.134 218.534 181.6 219.467 181.2 220.134C180.134 221.867 186.667 224 193.467 224C196.667 224 199.334 224.667 199.334 225.334C199.334 226.134 200.4 227.2 201.734 227.734C204.667 228.8 219.6 244.667 221.867 249.067C223.2 251.6 223.067 253.067 220.667 258C217.334 264.934 209.467 271.867 194.534 281.067C183.2 288.134 154.933 302.667 152.667 302.667C152 302.667 151.333 300.934 151.333 298.934C151.333 296.267 153.067 293.6 157.467 289.334C165.867 281.067 167.734 277.067 167.067 268.4C166.4 260 162.133 253.867 151.867 246.667C137.467 236.4 129.733 225.734 124 208.267C121.2 199.733 122 193.333 126.667 183.867L130 177.333H143.2C154.533 177.333 156.533 176.933 158.667 174.667C160.667 172.4 160.8 171.467 159.6 168.533C158.667 166.667 158.4 163.733 158.8 161.867C159.333 160 158.933 157.733 158 156.667C156.667 155.067 156.8 154.667 158.533 154.667C161.467 154.667 162.667 151.067 160.667 148.667C159.2 146.933 159.467 146 161.867 143.6C165.6 139.467 165.467 137.067 160.933 134.4C153.733 130.133 152.933 128.267 153.6 117.6C154.267 109.733 154.8 108 156.533 108C160 108 164.667 102.933 164.8 98.9334C165.2 89.2 163.333 84.4 157.6 80.6667C153.733 78.2667 143.6 76.9333 140 78.5333ZM238.8 229.467C225.6 234.134 221.067 234 214.667 228.667L210.667 225.467H230.667L250.667 225.334L238.8 229.467Z" fill="#FEF5EA"/>
<path d="M189.36 110.6H205.86V115.76H205.02L204.06 112.43C204 112.17 203.93 111.99 203.85 111.89C203.79 111.77 203.66 111.7 203.46 111.68C203.26 111.66 202.92 111.65 202.44 111.65H199.41V128.48C199.41 129.16 199.44 129.57 199.5 129.71C199.56 129.83 199.75 129.91 200.07 129.95L201.72 130.16V131H193.5V130.16L195.15 129.95C195.47 129.91 195.66 129.83 195.72 129.71C195.78 129.57 195.81 129.16 195.81 128.48V111.65H192.78C192.32 111.65 191.98 111.66 191.76 111.68C191.56 111.7 191.43 111.77 191.37 111.89C191.31 111.99 191.24 112.17 191.16 112.43L190.2 115.76H189.36V110.6ZM210.342 130.16V131H204.552V130.16L206.202 129.95C206.422 129.91 206.582 129.87 206.682 129.83C206.782 129.77 206.872 129.64 206.952 129.44C207.032 129.24 207.142 128.92 207.282 128.48L213.012 110.6H215.592L221.352 128.48C221.492 128.92 221.602 129.24 221.682 129.44C221.762 129.64 221.852 129.77 221.952 129.83C222.072 129.87 222.232 129.91 222.432 129.95L224.082 130.16V131H215.802V130.16L217.452 129.95C217.772 129.91 217.942 129.83 217.962 129.71C218.002 129.57 217.912 129.16 217.692 128.48L216.552 124.76H209.622L208.452 128.48C208.252 129.16 208.162 129.57 208.182 129.71C208.202 129.83 208.372 129.91 208.692 129.95L210.342 130.16ZM209.982 123.71H216.222L213.132 113.75L209.982 123.71ZM225.183 111.44V110.6H234.033C236.593 110.6 238.553 111.35 239.913 112.85C241.293 114.35 241.983 116.68 241.983 119.84V121.73C241.983 124.89 241.293 127.23 239.913 128.75C238.553 130.25 236.593 131 234.033 131H225.183V130.16L226.833 129.95C227.153 129.91 227.343 129.83 227.403 129.71C227.463 129.57 227.493 129.16 227.493 128.48V113.12C227.493 112.44 227.463 112.04 227.403 111.92C227.343 111.78 227.153 111.69 226.833 111.65L225.183 111.44ZM233.883 111.65H231.093V129.95H233.883C234.903 129.95 235.723 129.78 236.343 129.44C236.963 129.08 237.413 128.42 237.693 127.46C237.993 126.48 238.143 125.07 238.143 123.23V118.34C238.143 116.5 237.993 115.1 237.693 114.14C237.413 113.18 236.963 112.53 236.343 112.19C235.723 111.83 234.903 111.65 233.883 111.65ZM256.286 130.16V131H248.066V130.16L249.716 129.95C250.036 129.91 250.226 129.83 250.286 129.71C250.346 129.57 250.376 129.16 250.376 128.48V122.27L245.606 113.12C245.366 112.66 245.186 112.34 245.066 112.16C244.946 111.96 244.826 111.83 244.706 111.77C244.606 111.71 244.456 111.67 244.256 111.65L242.606 111.44V110.6H251.156V111.44L249.506 111.65C249.206 111.69 249.056 111.78 249.056 111.92C249.056 112.04 249.216 112.44 249.536 113.12L253.406 120.86L257.426 113.12C257.766 112.46 257.926 112.06 257.906 111.92C257.906 111.78 257.756 111.69 257.456 111.65L255.806 111.44V110.6H261.656V111.44L260.006 111.65C259.806 111.67 259.646 111.71 259.526 111.77C259.426 111.83 259.316 111.96 259.196 112.16C259.096 112.34 258.926 112.66 258.686 113.12L253.976 122.21V128.48C253.976 129.16 254.006 129.57 254.066 129.71C254.126 129.83 254.316 129.91 254.636 129.95L256.286 130.16ZM190.29 143.44V142.6H199.32C201.52 142.6 203.16 143.11 204.24 144.13C205.34 145.13 205.89 146.47 205.89 148.15V148.84C205.89 150.52 205.34 151.87 204.24 152.89C203.16 153.91 201.52 154.42 199.32 154.42H196.2V160.48C196.2 161.16 196.23 161.57 196.29 161.71C196.35 161.83 196.54 161.91 196.86 161.95L199.11 162.16V163H190.29V162.16L191.94 161.95C192.26 161.91 192.45 161.83 192.51 161.71C192.57 161.57 192.6 161.16 192.6 160.48V145.12C192.6 144.44 192.57 144.04 192.51 143.92C192.45 143.78 192.26 143.69 191.94 143.65L190.29 143.44ZM199.32 143.65H196.2V153.37H199.32C200.2 153.37 200.87 153.02 201.33 152.32C201.81 151.62 202.05 150.66 202.05 149.44V147.55C202.05 146.33 201.81 145.38 201.33 144.7C200.87 144 200.2 143.65 199.32 143.65ZM222.23 157.84H223.07V163H208.22V162.16L209.87 161.95C210.19 161.91 210.38 161.83 210.44 161.71C210.5 161.57 210.53 161.16 210.53 160.48V145.12C210.53 144.44 210.5 144.04 210.44 143.92C210.38 143.78 210.19 143.69 209.87 143.65L208.22 143.44V142.6H222.77V147.76H221.93L220.97 144.43C220.91 144.19 220.84 144.02 220.76 143.92C220.7 143.8 220.57 143.73 220.37 143.71C220.17 143.67 219.83 143.65 219.35 143.65H214.13V152.17H217.55C218.03 152.17 218.37 152.16 218.57 152.14C218.77 152.1 218.9 152.03 218.96 151.93C219.04 151.81 219.11 151.63 219.17 151.39L219.83 148.96H220.67V156.43H219.83L219.17 154C219.11 153.76 219.04 153.59 218.96 153.49C218.9 153.37 218.77 153.3 218.57 153.28C218.37 153.24 218.03 153.22 217.55 153.22H214.13V161.95H219.65C220.13 161.95 220.47 161.94 220.67 161.92C220.87 161.88 221 161.81 221.06 161.71C221.14 161.59 221.21 161.41 221.27 161.17L222.23 157.84ZM235.566 163.3C233.726 163.3 232.166 162.91 230.886 162.13C229.606 161.33 228.636 160.21 227.976 158.77C227.316 157.33 226.986 155.65 226.986 153.73V151.84C226.986 149.92 227.276 148.25 227.856 146.83C228.456 145.39 229.346 144.28 230.526 143.5C231.706 142.7 233.186 142.3 234.966 142.3C236.486 142.3 237.756 142.6 238.776 143.2C239.796 143.78 240.546 144.56 241.026 145.54C241.526 146.5 241.736 147.55 241.656 148.69L238.146 149.56C238.346 147.56 238.136 146.03 237.516 144.97C236.916 143.89 236.016 143.35 234.816 143.35C233.536 143.35 232.546 143.89 231.846 144.97C231.166 146.05 230.826 147.84 230.826 150.34V155.23C230.826 157.71 231.216 159.5 231.996 160.6C232.776 161.7 233.966 162.25 235.566 162.25C236.226 162.25 236.836 162.13 237.396 161.89C237.976 161.65 238.456 161.24 238.836 160.66C239.236 160.06 239.486 159.22 239.586 158.14L241.746 158.71C241.466 159.83 241.016 160.73 240.396 161.41C239.776 162.09 239.046 162.58 238.206 162.88C237.386 163.16 236.506 163.3 235.566 163.3ZM258.206 157.84H259.046V163H244.196V162.16L245.846 161.95C246.166 161.91 246.356 161.83 246.416 161.71C246.476 161.57 246.506 161.16 246.506 160.48V145.12C246.506 144.44 246.476 144.04 246.416 143.92C246.356 143.78 246.166 143.69 245.846 143.65L244.196 143.44V142.6H258.746V147.76H257.906L256.946 144.43C256.886 144.19 256.816 144.02 256.736 143.92C256.676 143.8 256.546 143.73 256.346 143.71C256.146 143.67 255.806 143.65 255.326 143.65H250.106V152.17H253.526C254.006 152.17 254.346 152.16 254.546 152.14C254.746 152.1 254.876 152.03 254.936 151.93C255.016 151.81 255.086 151.63 255.146 151.39L255.806 148.96H256.646V156.43H255.806L255.146 154C255.086 153.76 255.016 153.59 254.936 153.49C254.876 153.37 254.746 153.3 254.546 153.28C254.346 153.24 254.006 153.22 253.526 153.22H250.106V161.95H255.626C256.106 161.95 256.446 161.94 256.646 161.92C256.846 161.88 256.976 161.81 257.036 161.71C257.116 161.59 257.186 161.41 257.246 161.17L258.206 157.84ZM285.822 162.16V163H277.602V162.16L279.252 161.95C279.572 161.91 279.762 161.83 279.822 161.71C279.882 161.57 279.912 161.16 279.912 160.48V145.06L274.422 160.6H271.212L265.782 145.15V160.48C265.782 161.16 265.812 161.57 265.872 161.71C265.932 161.83 266.122 161.91 266.442 161.95L268.092 162.16V163H262.272V162.16L263.922 161.95C264.242 161.91 264.432 161.83 264.492 161.71C264.552 161.57 264.582 161.16 264.582 160.48V145.12C264.582 144.44 264.552 144.04 264.492 143.92C264.432 143.78 264.242 143.69 263.922 143.65L262.272 143.44V142.6H268.602L274.092 158.2L279.672 142.6H285.822V143.44L284.172 143.65C283.852 143.69 283.662 143.78 283.602 143.92C283.542 144.04 283.512 144.44 283.512 145.12V160.48C283.512 161.16 283.542 161.57 283.602 161.71C283.662 161.83 283.852 161.91 284.172 161.95L285.822 162.16ZM302.415 157.84H303.255V163H288.405V162.16L290.055 161.95C290.375 161.91 290.565 161.83 290.625 161.71C290.685 161.57 290.715 161.16 290.715 160.48V145.12C290.715 144.44 290.685 144.04 290.625 143.92C290.565 143.78 290.375 143.69 290.055 143.65L288.405 143.44V142.6H302.955V147.76H302.115L301.155 144.43C301.095 144.19 301.025 144.02 300.945 143.92C300.885 143.8 300.755 143.73 300.555 143.71C300.355 143.67 300.015 143.65 299.535 143.65H294.315V152.17H297.735C298.215 152.17 298.555 152.16 298.755 152.14C298.955 152.1 299.085 152.03 299.145 151.93C299.225 151.81 299.295 151.63 299.355 151.39L300.015 148.96H300.855V156.43H300.015L299.355 154C299.295 153.76 299.225 153.59 299.145 153.49C299.085 153.37 298.955 153.3 298.755 153.28C298.555 153.24 298.215 153.22 297.735 153.22H294.315V161.95H299.835C300.315 161.95 300.655 161.94 300.855 161.92C301.055 161.88 301.185 161.81 301.245 161.71C301.325 161.59 301.395 161.41 301.455 161.17L302.415 157.84Z" fill="#FEF5EA"/>
</g>
<defs>
<clipPath id="clip0_101_10">
<rect width="266.667" height="266.667" fill="white" transform="translate(38 76)"/>
</clipPath>
</defs>
</svg>
